<svg xmlns="http://www.w3.org/2000/svg" height="100%" width="100%" aria-hidden="true" role="presentation" focusable="false"><g><g><title></title><path d="M10.033 4.747C10.993 3.047 12.764 2 14.682 2h18.636c1.918 0 3.69 1.047 4.649 2.747l9.312 16.5a5.616 5.616 0 0 1 0 5.506l-9.312 16.5c-.96 1.7-2.731 2.747-4.648 2.747H14.68c-1.917 0-3.688-1.047-4.648-2.747L.72 26.753a5.616 5.616 0 0 1 0-5.506l9.312-16.5Z" fill="url(#91abaffd-9ac8-432c-b4d0-b102108b0057)"></path><path d="M11 15.469C11 13 13.052 11 15.584 11h14.168c2.532 0 4.584 2 4.584 4.469v7.584c-.856-.22-1.695-.726-2.54-1.609a2.256 2.256 0 0 0-1.62-.694h-.016a2.256 2.256 0 0 0-1.62.694 6.88 6.88 0 0 1-1.08.931h-5.625a.823.823 0 0 0-.834.813c0 .448.373.812.834.812h1.349a2.26 2.26 0 0 0-.516 1.422v3.67l.007.415v.013c.052 1.541.376 2.964 1.004 4.23h-8.095c-2.532 0-4.584-2-4.584-4.469V15.47Zm6.25 3.656c.691 0 1.251-.546 1.251-1.219s-.56-1.218-1.25-1.218-1.25.545-1.25 1.218c0 .673.56 1.219 1.25 1.219Zm1.251 3.656c0-.673-.56-1.218-1.25-1.218S16 22.108 16 22.78c0 .673.56 1.219 1.25 1.219s1.25-.546 1.25-1.219Zm-1.25 6.094c.69 0 1.25-.546 1.25-1.219s-.56-1.218-1.25-1.218-1.25.545-1.25 1.218c0 .673.56 1.219 1.25 1.219ZM21 18.312c0 .45.373.813.834.813h6.667c.46 0 .834-.364.834-.813a.823.823 0 0 0-.834-.812h-6.667a.823.823 0 0 0-.834.813ZM30.167 37a.56.56 0 0 1-.182-.031c-1.153-.402-2.133-.934-2.936-1.592l-.003-.002a7.12 7.12 0 0 1-1.461-1.623l-.002-.002c-.77-1.183-1.186-2.614-1.241-4.282l-.007-.388v-3.658c0-.337.261-.61.584-.61 1.784 0 3.388-.744 4.839-2.259a.57.57 0 0 1 .41-.178.57.57 0 0 1 .41.178c1.45 1.515 3.054 2.26 4.839 2.26.322 0 .583.272.583.609v3.658l-.006.388c-.056 1.668-.472 3.099-1.242 4.282l-.002.002a7.12 7.12 0 0 1-1.461 1.623l-.003.002c-.803.658-1.783 1.19-2.936 1.592a.56.56 0 0 1-.183.031Z" class="msportalfx-svg-c01" fill="rgb(255, 255, 255)"></path><defs></defs></g></use><defs><linearGradient id="91abaffd-9ac8-432c-b4d0-b102108b0057" x1="31.968" y1="2.1" x2="25.211" y2="46.405" gradientUnits="userSpaceOnUse"><stop stop-color="#4DA9FF"></stop><stop offset="1" stop-color="#0052B3"></stop></linearGradient></defs></svg>